<?xml version="1.0" standalone="no"?>
<!DOCTYPE svg PUBLIC "-//W3C//DTD SVG 20010904//EN"
 "http://www.w3.org/TR/2001/REC-SVG-20010904/DTD/svg10.dtd">
<svg version="1.0" xmlns="http://www.w3.org/2000/svg"
 width="224.000000pt" height="224.000000pt" viewBox="0 0 224.000000 224.000000"
 preserveAspectRatio="xMidYMid meet">

<g transform="translate(0.000000,224.000000) scale(0.100000,-0.100000)"
fill="#000000" stroke="none">
<path d="M1173 1959 c-217 -36 -409 -216 -681 -639 -183 -285 -263 -475 -266
-630 -2 -115 20 -173 91 -250 63 -69 142 -111 241 -131 106 -20 334 -6 574 35
524 90 724 159 864 300 63 63 74 80 93 140 58 189 -11 413 -215 696 -108 150
-300 346 -403 412 -94 59 -201 83 -298 67z m144 -255 c28 -14 92 -63 141 -110
217 -203 392 -475 417 -646 24 -164 -167 -260 -710 -357 -272 -48 -323 -54
-450 -55 -103 -1 -127 2 -167 21 -120 55 -117 164 11 408 137 261 357 570 473
665 123 101 195 120 285 74z"/>
</g>
</svg>
