<?xml version="1.0" standalone="no"?>
<!DOCTYPE svg PUBLIC "-//W3C//DTD SVG 20010904//EN"
 "http://www.w3.org/TR/2001/REC-SVG-20010904/DTD/svg10.dtd">
<svg version="1.0" xmlns="http://www.w3.org/2000/svg"
 width="1615.000000pt" height="514.000000pt" viewBox="0 0 1615.000000 514.000000"
 preserveAspectRatio="xMidYMid meet">

<g transform="translate(0.000000,514.000000) scale(0.100000,-0.100000)"
fill="#000000" stroke="none">
<path d="M5070 3215 l0 -865 145 0 145 0 0 323 c0 417 11 483 95 575 105 117
340 137 451 40 39 -34 77 -103 88 -158 4 -19 7 -203 6 -407 l-1 -373 151 0
150 0 0 395 c0 430 -6 496 -57 603 -37 78 -123 166 -198 202 -98 47 -183 63
-305 57 -146 -6 -239 -40 -352 -127 l-28 -22 0 311 0 311 -145 0 -145 0 0
-865z"/>
<path d="M2305 3979 c-95 -14 -228 -86 -324 -175 -144 -134 -343 -406 -509
-694 -202 -352 -220 -595 -57 -755 142 -139 344 -169 730 -110 345 54 637 121
789 182 380 151 467 412 271 805 -116 231 -387 551 -570 673 -102 67 -213 92
-330 74z m150 -268 c94 -42 313 -266 427 -435 148 -222 201 -394 148 -482 -23
-37 -100 -90 -175 -121 -207 -86 -780 -196 -1025 -197 -114 -1 -130 1 -181 25
-90 42 -108 105 -68 235 61 203 382 701 558 866 124 118 223 152 316 109z"/>
<path d="M4122 3248 c3 -623 3 -623 26 -680 42 -103 112 -171 219 -210 85 -32
284 -31 363 0 30 12 65 30 78 40 l23 18 -30 79 c-16 44 -34 92 -39 106 l-11
27 -47 -24 c-36 -18 -64 -24 -114 -24 -78 0 -120 22 -154 80 -20 33 -21 53
-24 363 l-3 327 170 0 171 0 0 120 0 120 -170 0 -170 0 0 140 0 140 -145 0
-146 0 3 -622z"/>
<path d="M7065 3594 c-230 -48 -410 -221 -471 -454 -27 -104 -23 -265 10 -365
95 -297 349 -457 700 -442 186 7 317 57 423 159 l42 41 -76 89 c-41 48 -77 88
-80 88 -2 0 -21 -13 -41 -30 -202 -161 -544 -121 -658 77 -10 18 -16 34 -13
37 4 4 420 87 782 156 l167 32 0 28 c0 44 -26 170 -46 220 -29 74 -92 166
-148 218 -146 133 -377 190 -591 146z m310 -253 c64 -28 136 -99 165 -162 13
-27 21 -51 18 -54 -4 -4 -676 -135 -694 -135 -11 0 7 113 28 167 21 58 94 145
142 170 64 34 111 43 201 40 67 -2 103 -9 140 -26z"/>
<path d="M8568 3600 c-208 -37 -391 -166 -471 -330 -51 -105 -67 -176 -67
-300 0 -191 54 -325 179 -450 130 -129 270 -183 476 -183 198 -1 348 54 460
168 59 59 99 125 79 132 -5 2 -54 30 -109 62 l-100 58 -55 -56 c-88 -91 -186
-124 -319 -109 -84 9 -158 47 -215 108 -57 61 -82 114 -96 206 -29 187 51 349
208 422 50 24 70 27 157 27 87 0 107 -3 156 -26 54 -26 126 -86 146 -123 10
-18 18 -15 122 45 61 35 111 69 111 76 0 6 -21 40 -47 74 -99 131 -250 199
-453 205 -63 1 -136 -1 -162 -6z"/>
<path d="M9840 3594 c-35 -7 -102 -32 -148 -54 -216 -103 -339 -327 -327 -595
5 -123 20 -185 67 -283 155 -326 617 -439 904 -221 l64 48 0 -69 0 -70 145 0
145 0 -2 623 -3 622 -147 3 -148 3 0 -77 0 -76 -46 41 c-119 104 -317 146
-504 105z m299 -253 c193 -60 297 -268 242 -483 -58 -225 -298 -338 -513 -241
-61 27 -133 95 -163 154 -43 82 -56 197 -34 301 45 212 258 335 468 269z"/>
<path d="M11620 3594 c-80 -17 -171 -61 -227 -109 l-43 -37 0 71 0 71 -140 0
-140 0 0 -625 0 -625 144 0 145 0 3 378 c3 362 5 379 26 433 29 73 82 133 146
167 45 23 63 26 146 27 74 0 104 -4 134 -19 62 -31 104 -82 126 -154 18 -59
20 -93 20 -443 l0 -379 149 0 150 0 3 383 3 382 26 55 c31 66 85 122 148 152
38 19 63 23 141 23 110 0 156 -18 209 -82 63 -76 64 -88 69 -520 l3 -393 145
0 144 0 0 413 c0 380 -2 420 -20 491 -25 101 -61 165 -125 225 -96 91 -195
125 -360 124 -177 -1 -307 -47 -411 -145 l-53 -50 -58 59 c-119 121 -310 169
-503 127z"/>
<path d="M14095 3596 c-91 -17 -188 -63 -247 -115 l-48 -43 0 76 0 76 -140 0
-140 0 0 -850 0 -851 148 3 147 3 0 296 0 297 46 -39 c170 -142 447 -160 672
-42 290 152 402 546 246 870 -71 147 -215 266 -375 308 -84 22 -226 27 -309
11z m239 -269 c163 -75 245 -253 207 -449 -55 -280 -388 -391 -609 -203 -115
99 -151 321 -79 479 27 59 96 135 146 160 99 52 239 57 335 13z"/>
<path d="M6170 1685 c-26 -32 13 -81 48 -59 34 22 22 74 -18 74 -10 0 -23 -7
-30 -15z"/>
<path d="M5560 1455 l0 -235 25 0 c20 0 25 5 25 25 0 31 3 31 41 3 42 -31 136
-32 176 -2 51 38 73 81 73 144 0 63 -22 106 -73 144 -41 30 -134 29 -176 -2
l-31 -23 0 91 0 90 -30 0 -30 0 0 -235z m228 35 c40 -25 55 -61 49 -120 -11
-97 -117 -131 -188 -60 -24 23 -29 37 -29 75 0 57 12 80 53 105 41 25 74 25
115 0z"/>
<path d="M5990 1455 l0 -235 30 0 30 0 0 235 0 235 -30 0 -30 0 0 -235z"/>
<path d="M7380 1455 l0 -235 30 0 30 0 0 105 c0 72 5 115 14 134 15 28 53 51
87 51 28 0 75 -26 83 -45 3 -9 6 -68 6 -131 l0 -114 30 0 30 0 0 130 0 130
-34 38 c-33 35 -37 37 -98 37 -44 0 -71 -6 -90 -19 l-28 -18 0 86 0 86 -30 0
-30 0 0 -235z"/>
<path d="M10254 1681 c-32 -14 -54 -51 -54 -88 0 -30 -3 -33 -30 -33 -25 0
-30 -4 -30 -24 0 -19 6 -25 28 -28 l27 -3 3 -142 3 -143 29 0 30 0 0 145 0
145 45 0 c41 0 45 2 45 25 0 23 -3 25 -51 25 -51 0 -51 0 -45 28 10 38 35 54
73 47 26 -5 33 -2 38 15 4 12 4 24 1 27 -10 10 -91 13 -112 4z"/>
<path d="M11240 1595 c0 -32 -2 -35 -30 -35 -25 0 -30 -4 -30 -24 0 -19 6 -25
28 -28 l27 -3 5 -117 c4 -101 8 -120 26 -138 39 -40 150 -34 142 8 -3 13 -12
16 -36 14 -66 -5 -72 6 -72 128 l0 110 45 0 c41 0 45 2 45 25 0 23 -4 25 -45
25 -45 0 -45 0 -45 35 0 32 -2 35 -30 35 -28 0 -30 -3 -30 -35z"/>
<path d="M4446 1550 c-34 -11 -73 -45 -92 -82 -18 -35 -18 -121 1 -158 44 -85
174 -114 264 -59 32 19 32 21 16 39 -17 19 -18 19 -53 -1 -20 -10 -47 -19 -60
-19 -35 0 -88 25 -106 51 -32 46 -26 49 119 49 l135 0 0 28 c0 15 -10 48 -22
72 -37 72 -119 104 -202 80z m137 -80 c48 -54 40 -60 -78 -60 -115 0 -123 5
-84 54 44 55 115 58 162 6z"/>
<path d="M4750 1390 l0 -170 30 0 30 0 0 105 c0 72 5 115 14 134 15 28 53 51
87 51 28 0 75 -26 83 -45 3 -9 6 -68 6 -131 l0 -114 30 0 30 0 0 130 0 130
-34 38 c-33 35 -37 37 -98 37 -44 0 -72 -5 -91 -17 -33 -23 -37 -22 -37 2 0
15 -7 20 -25 20 l-25 0 0 -170z"/>
<path d="M5235 1551 c-16 -4 -40 -13 -53 -20 -19 -10 -20 -15 -11 -32 7 -14
16 -18 27 -14 96 40 182 21 182 -40 0 -21 -5 -23 -87 -27 -82 -4 -87 -6 -115
-36 -48 -54 -31 -119 38 -148 46 -19 83 -18 129 6 48 24 45 24 45 0 0 -15 7
-20 25 -20 l25 0 0 126 c0 133 -9 166 -52 193 -25 16 -113 23 -153 12z m145
-195 c0 -38 -10 -56 -41 -71 -39 -21 -85 -19 -109 5 -49 49 -9 90 87 90 60 0
63 -1 63 -24z"/>
<path d="M6170 1390 l0 -170 30 0 30 0 0 170 0 170 -30 0 -30 0 0 -170z"/>
<path d="M6340 1390 l0 -170 30 0 30 0 0 105 c0 72 5 115 14 134 15 28 53 51
87 51 28 0 75 -26 83 -45 3 -9 6 -68 6 -131 l0 -114 30 0 30 0 0 130 0 130
-34 38 c-33 35 -37 37 -98 37 -44 0 -72 -5 -91 -17 -33 -23 -37 -22 -37 2 0
15 -7 20 -25 20 l-25 0 0 -170z"/>
<path d="M6843 1550 c-44 -14 -91 -64 -99 -106 -22 -120 42 -198 163 -199 49
0 68 5 94 24 l32 24 -7 -44 c-14 -88 -95 -122 -191 -80 -36 16 -51 18 -61 10
-42 -35 24 -72 131 -73 86 -1 128 15 157 63 21 33 23 50 26 214 l4 177 -31 0
c-26 0 -31 -4 -31 -25 l0 -26 -28 21 c-32 24 -113 34 -159 20z m122 -54 c96
-40 75 -182 -29 -201 -70 -14 -136 36 -136 102 0 45 14 70 53 93 38 24 66 25
112 6z"/>
<path d="M7802 1435 c3 -105 7 -129 24 -152 47 -64 143 -80 205 -34 l29 22 0
-26 c0 -21 5 -25 30 -25 l30 0 0 170 0 170 -29 0 -29 0 -4 -114 c-3 -105 -5
-117 -27 -140 -53 -56 -141 -39 -160 32 -6 20 -11 79 -11 130 l0 92 -31 0 -31
0 4 -125z"/>
<path d="M8230 1390 l0 -170 30 0 30 0 0 104 c0 58 4 116 10 130 13 35 64 59
106 51 55 -10 64 -34 64 -167 l0 -118 29 0 29 0 4 109 c3 92 7 114 24 138 41
54 127 53 153 -3 6 -14 11 -74 11 -134 l0 -110 30 0 30 0 0 124 c0 111 -2 126
-23 157 -43 63 -154 77 -214 25 l-26 -22 -24 22 c-13 12 -41 25 -62 29 -40 7
-116 -8 -126 -25 -10 -17 -25 -11 -25 10 0 15 -7 20 -25 20 l-25 0 0 -170z"/>
<path d="M8955 1551 c-16 -4 -40 -13 -53 -20 -19 -10 -20 -15 -11 -32 7 -14
16 -18 27 -14 96 40 182 21 182 -40 0 -21 -5 -23 -87 -27 -82 -4 -87 -6 -115
-36 -48 -54 -31 -119 38 -148 46 -19 83 -18 129 6 48 24 45 24 45 0 0 -15 7
-20 25 -20 l25 0 0 126 c0 133 -9 166 -52 193 -25 16 -113 23 -153 12z m145
-195 c0 -38 -10 -56 -41 -71 -39 -21 -85 -19 -109 5 -49 49 -9 90 87 90 60 0
63 -1 63 -24z"/>
<path d="M9270 1390 l0 -170 30 0 30 0 0 105 c0 72 5 115 14 134 15 28 53 51
87 51 28 0 75 -26 83 -45 3 -9 6 -68 6 -131 l0 -114 30 0 30 0 0 130 0 130
-34 38 c-33 35 -37 37 -98 37 -44 0 -72 -5 -91 -17 -33 -23 -37 -22 -37 2 0
15 -7 20 -25 20 l-25 0 0 -170z"/>
<path d="M9724 1541 c-44 -20 -54 -35 -54 -85 0 -46 32 -72 108 -87 80 -15
109 -36 93 -67 -20 -37 -72 -39 -178 -7 -16 5 -23 2 -28 -15 -9 -27 3 -36 71
-51 102 -23 187 10 200 78 10 49 -32 86 -116 102 -74 15 -90 24 -90 56 0 41
71 57 135 31 32 -14 36 -13 45 4 16 31 12 37 -34 49 -63 16 -105 13 -152 -8z"/>
<path d="M10470 1538 c-63 -32 -90 -77 -90 -148 0 -43 6 -66 23 -91 27 -41 98
-79 147 -79 49 0 120 38 147 79 27 40 31 126 9 169 -44 84 -147 115 -236 70z
m130 -43 c43 -22 60 -53 60 -108 0 -40 -5 -54 -29 -77 -51 -52 -111 -52 -162
0 -24 23 -29 37 -29 75 0 57 12 80 53 105 38 24 68 25 107 5z"/>
<path d="M10810 1390 l0 -170 30 0 30 0 0 105 c0 72 5 115 14 134 15 28 53 51
86 51 15 0 20 7 20 26 0 25 -2 26 -37 20 -21 -4 -50 -16 -65 -27 l-28 -20 0
26 c0 20 -5 25 -25 25 l-25 0 0 -170z"/>
<path d="M11540 1538 c-63 -32 -90 -77 -90 -148 0 -43 6 -66 23 -91 27 -41 98
-79 147 -79 49 0 120 38 147 79 27 40 31 126 9 169 -44 84 -147 115 -236 70z
m130 -43 c43 -22 60 -53 60 -108 0 -40 -5 -54 -29 -77 -51 -52 -111 -52 -162
0 -24 23 -29 37 -29 75 0 57 12 80 53 105 38 24 68 25 107 5z"/>
<path d="M11880 1390 l0 -170 30 0 30 0 0 104 c0 58 4 116 10 130 13 35 64 59
106 51 55 -10 64 -34 64 -167 l0 -118 29 0 29 0 4 109 c3 92 7 114 24 138 41
54 127 53 153 -3 6 -14 11 -74 11 -134 l0 -110 30 0 30 0 0 124 c0 111 -2 126
-23 157 -43 63 -154 77 -214 25 l-26 -22 -24 22 c-13 12 -41 25 -62 29 -40 7
-116 -8 -126 -25 -10 -17 -25 -11 -25 10 0 15 -7 20 -25 20 l-25 0 0 -170z"/>
<path d="M12610 1538 c-63 -32 -90 -77 -90 -148 0 -43 6 -66 23 -91 27 -41 98
-79 147 -79 49 0 120 38 147 79 27 40 31 126 9 169 -44 84 -147 115 -236 70z
m130 -43 c43 -22 60 -53 60 -108 0 -40 -5 -54 -29 -77 -51 -52 -111 -52 -162
0 -24 23 -29 37 -29 75 0 57 12 80 53 105 38 24 68 25 107 5z"/>
<path d="M12950 1390 l0 -170 30 0 30 0 0 105 c0 72 5 115 14 134 15 28 53 51
86 51 15 0 20 7 20 26 0 25 -2 26 -37 20 -21 -4 -50 -16 -65 -27 l-28 -20 0
26 c0 20 -5 25 -25 25 l-25 0 0 -170z"/>
<path d="M13210 1390 l0 -170 30 0 30 0 0 105 c0 72 5 115 14 134 15 28 53 51
86 51 15 0 20 7 20 26 0 25 -2 26 -37 20 -21 -4 -50 -16 -65 -27 l-28 -20 0
26 c0 20 -5 25 -25 25 l-25 0 0 -170z"/>
<path d="M13520 1538 c-63 -32 -90 -77 -90 -148 0 -43 6 -66 23 -91 27 -41 98
-79 147 -79 49 0 120 38 147 79 27 40 31 126 9 169 -44 84 -147 115 -236 70z
m130 -43 c43 -22 60 -53 60 -108 0 -40 -5 -54 -29 -77 -51 -52 -111 -52 -162
0 -24 23 -29 37 -29 75 0 57 12 80 53 105 38 24 68 25 107 5z"/>
<path d="M13800 1553 c0 -5 26 -81 58 -169 57 -154 60 -159 89 -162 29 -3 30
-2 72 110 23 62 45 119 50 126 5 8 24 -31 53 -110 44 -119 46 -123 77 -126 17
-2 31 -2 31 1 0 2 27 77 60 167 33 90 60 165 60 167 0 3 -12 3 -26 1 -25 -3
-31 -14 -73 -130 -25 -70 -49 -128 -52 -128 -4 0 -27 57 -51 128 -43 121 -46
127 -73 127 -26 0 -30 -6 -72 -120 -24 -66 -48 -124 -52 -128 -4 -4 -28 50
-53 120 -41 117 -47 128 -71 131 -15 2 -27 -1 -27 -5z"/>
</g>
</svg>
